<svg xmlns="http://www.w3.org/2000/svg" viewBox="0 0 202.41 406.98"><defs><style>.cls-1{fill:#fff;}.cls-2{fill:none;stroke:#fff;stroke-miterlimit:10;stroke-width:4px;}</style></defs><g id="Layer_2" data-name="Layer 2"><g id="Layer_1-2" data-name="Layer 1"><polygon class="cls-1" points="67.35 117.32 66.49 115.95 65.5 114.69 64.37 113.55 63.12 112.53 63.59 114.13 63.94 115.76 64.18 117.42 64.3 119.07 64.3 120.74 64.19 122.41 64.1 123.19 63.98 123.96 63.85 124.73 63.69 125.5 63.52 126.27 63.32 127.03 63.1 127.78 62.86 128.53 62.6 129.26 62.32 130 62.03 130.73 61.7 131.45 60.91 133.49 60.07 135.54 59.19 137.55 58.27 139.55 57.3 141.53 56.3 143.49 55.25 145.43 54.16 147.34 53.02 149.23 49.57 154.71 47.36 158.38 45.22 162.11 43.16 165.87 41.19 169.66 39.28 173.51 37.45 177.38 35.7 181.3 34.03 185.24 32.45 189.22 30.94 193.24 29.51 197.28 27.29 204.21 25.31 211.21 23.57 218.28 22.08 225.4 20.85 232.58 19.87 239.78 19.15 247.02 18.68 254.28 18.46 261.56 18.5 268.84 18.8 276.1 19.35 283.36 20.54 292.46 22.4 301.44 24.92 310.27 28.08 318.88 31.86 327.24 36.26 335.3 41.23 343.01 46.75 350.33 52.8 357.24 59.34 363.68 66.34 369.61 61.1 363.3 56.19 356.73 51.61 349.92 47.38 342.89 43.51 335.66 39.99 328.25 36.86 320.67 34.1 312.94 31.74 305.09 29.78 297.12 28.21 289.07 27.05 280.95 26.33 273.55 25.91 266.11 25.78 258.67 25.96 251.23 26.43 243.8 27.2 236.39 28.27 229.03 29.63 221.72 31.29 214.46 32.53 208.77 33.98 203.14 35.63 197.55 37.47 192.03 39.51 186.58 41.74 181.21 44.16 175.92 46.77 170.71 49.56 165.6 52.53 160.6 55.68 155.71 58.99 150.92 60.25 149.11 61.43 147.25 62.54 145.33 63.58 143.39 64.53 141.39 65.42 139.38 66.22 137.31 66.94 135.23 67.57 133.12 68.13 130.98 68.6 128.82 68.99 126.65 69.14 125.05 69.14 123.44 68.94 121.84 68.58 120.28 68.04 118.76 67.35 117.32"/><path class="cls-1" d="M202.36,400.72l-.16-.75-.27-.72-.36-.68-.44-.63-.54-.56-1.07-1-1-1.07-1-1.1-.94-1.15-.89-1.19L190.92,385l-4.34-7.16-3.94-7.41-3.5-7.61-3.07-7.8-2.64-8-2.17-8.1-1.71-8.19-1.25-8.29-.79-8.34-.31-8.38.16-8.37.56-14.29.29-14.31,0-14.3L168,240.16l-.47-14.29-.73-14.29-1-14.26-1.24-14.25-1.5-14.22-1.75-14.19-2-14.16-2.26-14.11-1.36-6.81L154,112.87l-2.15-6.6-2.53-6.45-2.91-6.3-3.27-6.12-3.63-5.91-4-5.68-4.3-5.45-4.61-5.18-4.91-4.9-5.19-4.61-5.5-4-6-3.13-6.41-2.21L91.9,45.11l-6.78-.27-6.76.71-6.57,1.68-6.26,2.62-5.81,3.5-5.25,4.3-4.56,5-3.79,5.63-.76,1.28-.83,1.23L43.65,72l-1,1.15-1,1.1-1.05,1-1.11,1-1.14.94-1.19.88L36,78.91l-1.27.77-1.31.69L31,81.58,28.66,82.8l-2.35,1.26L24,85.34l-2.32,1.31L19.36,88l-2.29,1.36L14.8,90.71l-2.25,1.41L10.3,93.55,8.08,95,5.87,96.48l-.65.46-.62.49L4,98l-.57.54-.54.58-.5.6-.48.62-.46.65-.41.67-.39.68L.32,103l-.32.72,5.5-.6,5.51-.49,5.53-.38,5.52-.28,5.53-.17,5.53-.08,5.54,0,5.52.15,5.53.24,5.52.34,2.76.23,2.55.39,2.52.57,2.48.74,2.4.92,2.35,1.08,2.26,1.25,2.17,1.4,2.07,1.55,1.95,1.69,1.82,1.82,1.19,1.38.51.57,1.55,2.06,3,4.75,2.47,5,2,5.25,1.4,5.43.83,5.53.27,5.59-.31,5.6-.88,5.53-1.43,5.41-1.79,6-1.58,6-1.36,6.1-1.13,6.14-.89,6.19-.68,6.22-.44,6.23L83,215.41l0,6.25.24,6.25.47,6.22.69,6.65.78,6.63.89,6.63,1,6.61,1.09,6.58,1.18,6.58,1.29,6.56L92,286.89l1.49,6.51,1.58,6.49,1.69,6.47,1.78,6.43.87,2.79,1,2.74,1.15,2.68,1.27,2.62,1.41,2.56,1.51,2.48,1.65,2.41,1.77,2.31,1.88,2.23,2,2.14.88.73,1,.55,1.09.33,1.14.11,1.13-.11,1.09-.33,1-.55.88-.73.71-.89.52-1,1.29-3.48,1.15-3.55,1-3.59.83-3.63.67-3.67.5-3.68.36-3.71.17-3.71,0-3.74-.13-3.71-.31-3.71-.47-3.7.81,2.46.76,2.48.7,2.49.65,2.52.59,2.52.55,2.52.48,2.56.44,2.54.38,2.56.32,2.58.27,2.57.87,7,1.26,6.93,1.64,6.86,2,6.73,2.41,6.62,2.78,6.47,3.14,6.31,3.49,6.11,3.84,5.9,4.16,5.69,4.47,5.44,4.78,5.17,1.92,1.85,2,1.7,2.15,1.58,2.26,1.42,2.34,1.27,2.42,1.11,2.49.94,2.55.77,2.59.6,2.62.44,2.65.24,2.67.09.63,0,.63-.13.62-.19.58-.27.55-.34.49-.41.54-.56.44-.62.36-.68.27-.72.16-.76,0-.76ZM71,69.08a4.56,4.56,0,1,0,0,9.11h.08a5.74,5.74,0,1,1-2.58-10.88A5.7,5.7,0,0,1,73,69.58,4.45,4.45,0,0,0,71,69.08Z"/><path class="cls-2" d="M63.35,14.79c-1.67,6.59,1.72,9.74,10.42,9.66,2.26,2.24,4.25,4.66,5,7.88.67,2.92-.44,4.22-3.32,3.2s-6.17-1.55-8.3-4.09a2.62,2.62,0,0,0-1.47,3.12c2.78,5.51,1.69,12.07,4.88,17.43"/><path class="cls-2" d="M79.18,35.72a13.78,13.78,0,0,1,5.4,8.41c.38,1.62,0,1.84-1.74,2.24C77.6,47.61,73.55,44.54,69,43.21"/><path class="cls-2" d="M68.53,15.1C68,10.67,65.34,7.42,62.74,3.88c-2.45,5.14-.41,10.2,4.33,11.47,5,1.35,5.62,2.16,6.3,8.56"/><path class="cls-2" d="M64.94,23.11c-1.78,2.82-.41,5.09,1.27,7.32"/></g></g></svg>